<svg xmlns="http://www.w3.org/2000/svg" xmlns:xlink="http://www.w3.org/1999/xlink" width="946.713" height="1034.009" viewBox="0 0 946.713 1034.009">
  <defs>
    <clipPath id="clip-path">
      <rect id="Retângulo_1047" data-name="Retângulo 1047" width="946.713" height="1034.009" fill="none" stroke="#5cffc4" stroke-width="3"/>
    </clipPath>
  </defs>
  <g id="Grupo_4017" data-name="Grupo 4017" opacity="0.15">
    <g id="Grupo_3715" data-name="Grupo 3715" clip-path="url(#clip-path)">
      <path id="Caminho_4900" data-name="Caminho 4900" d="M301.149,113.85A427.759,427.759,0,0,1,822.682,365.726c41.266,104.4,39.009,223.218-6.2,325.982C771.817,794.754,686.2,877.171,581.563,917.86A429.305,429.305,0,0,1,467.971,945.4a424.562,424.562,0,0,1-212.438-33.747C152.486,866.989,70.067,781.367,29.37,676.737a426.682,426.682,0,0,1-6.216-294.214,100.91,100.91,0,0,1,190.8,65.776A224.252,224.252,0,1,0,634.8,439.336c-42.624-107.717-162.647-165.951-273.644-132.81l-1.68.509A100.9,100.9,0,0,1,301.149,113.85" transform="translate(94.626 86.538)" fill="none" stroke="#5cffc4" stroke-width="3"/>
    </g>
  </g>
</svg>
