<svg width="59" height="59" viewBox="0 0 59 59" fill="none" xmlns="http://www.w3.org/2000/svg">
<g id="Grupo 7">
<path id="Subtract" fill-rule="evenodd" clip-rule="evenodd" d="M22.7618 0.785054C26.7725 -0.158252 30.9364 -0.252583 34.9857 0.508114L34.9867 0.511011C36.795 0.864811 38.3904 1.91735 39.4262 3.43985C40.4619 4.96234 40.8543 6.83175 40.518 8.64168C40.1817 10.4516 39.144 12.0558 37.6303 13.1055C36.1166 14.1553 34.2494 14.5657 32.4344 14.2476L32.3191 14.2224C28.8897 13.5845 25.3451 14.1179 22.2559 15.7366C19.1667 17.3553 16.7124 19.9652 15.2879 23.1464C13.8635 26.3276 13.5518 29.8951 14.403 33.2747C15.2541 36.6543 17.2186 39.6496 19.9804 41.7786C22.7422 43.9075 26.1406 45.0463 29.6288 45.0117C33.117 44.9771 36.4921 43.7711 39.211 41.5878C41.93 39.4045 43.8346 36.3708 44.6184 32.975C45.4022 29.5791 45.0197 26.0185 43.5323 22.8662C43.1355 22.0364 42.9067 21.1364 42.8589 20.2179C42.8111 19.2995 42.9454 18.3807 43.2539 17.5142C43.5624 16.6477 44.0391 15.8506 44.6567 15.1686C45.2743 14.4866 46.0206 13.9331 46.8528 13.5399C47.685 13.1468 48.5868 12.9216 49.5063 12.8775C50.4258 12.8333 51.345 12.9709 52.2111 13.2825C53.0773 13.594 53.8733 14.0733 54.5536 14.693C55.2338 15.3126 55.785 16.0603 56.1753 16.8932C58.2874 21.3652 59.2409 26.2956 58.9483 31.2317C58.6558 36.1678 57.1265 40.9513 54.5009 45.143C51.8754 49.3347 48.2378 52.8002 43.922 55.2212C39.6063 57.6422 34.7509 58.9412 29.8017 58.9987C25.6816 59.0368 21.5991 58.213 17.8167 56.5804C14.0344 54.9477 10.6359 52.5423 7.83984 49.5189C5.04377 46.4955 2.912 42.9209 1.58162 39.0251C0.251233 35.1293 -0.248326 30.9984 0.115077 26.8982C0.47848 22.7979 1.69679 18.819 3.69168 15.2173C5.68656 11.6157 8.41386 8.4709 11.6982 5.98532C14.9825 3.49975 18.7512 1.72836 22.7618 0.785054ZM55.2903 19.7839C55.2903 22.7992 52.8435 25.2436 49.8252 25.2436C46.8069 25.2436 44.3601 22.7992 44.3601 19.7839C44.3601 16.7685 46.8069 14.3241 49.8252 14.3241C52.8435 14.3241 55.2903 16.7685 55.2903 19.7839Z" fill="black"/>
</g>
</svg>
