<svg width="182" height="133" viewBox="0 0 182 133" fill="none" xmlns="http://www.w3.org/2000/svg">
<rect x="0.158913" y="0.109375" width="181.065" height="132.093" fill="#7C7C7C"/>
<path fill-rule="evenodd" clip-rule="evenodd" d="M83.8967 31.5619C88.6187 30.4972 93.5212 30.3907 98.2887 31.2493L98.2899 31.2525C100.419 31.6519 102.297 32.8399 103.517 34.5583C104.736 36.2767 105.198 38.3866 104.802 40.4295C104.406 42.4723 103.185 44.2829 101.402 45.4677C99.6202 46.6525 97.4218 47.1158 95.2849 46.7567L95.1491 46.7283C91.1114 46.0084 86.9382 46.6103 83.301 48.4373C79.6638 50.2643 76.7742 53.2101 75.0971 56.8007C73.42 60.3912 73.053 64.4177 74.0551 68.2322C75.0573 72.0468 77.3703 75.4275 80.6219 77.8304C83.8736 80.2333 87.8748 81.5186 91.9817 81.4796C96.0886 81.4405 100.062 80.0793 103.264 77.6151C106.465 75.1508 108.707 71.7268 109.63 67.894C110.553 64.0611 110.102 60.0424 108.351 56.4844C107.884 55.5478 107.615 54.532 107.558 53.4954C107.502 52.4587 107.66 51.4217 108.023 50.4437C108.387 49.4657 108.948 48.566 109.675 47.7962C110.402 47.0265 111.281 46.4018 112.261 45.958C113.241 45.5143 114.302 45.2602 115.385 45.2103C116.467 45.1604 117.55 45.3158 118.57 45.6674C119.589 46.0191 120.527 46.5601 121.327 47.2594C122.128 47.9588 122.777 48.8027 123.237 49.7428C125.724 54.7902 126.846 60.3551 126.502 65.9263C126.157 71.4976 124.357 76.8967 121.265 81.6278C118.174 86.3588 113.891 90.2702 108.81 93.0028C103.729 95.7353 98.0123 97.2014 92.1853 97.2664C87.3343 97.3094 82.5277 96.3796 78.0744 94.5369C73.6212 92.6941 69.6199 89.9792 66.3279 86.5667C63.0359 83.1543 60.526 79.1197 58.9596 74.7226C57.3933 70.3255 56.8051 65.6631 57.2329 61.0352C57.6608 56.4073 59.0952 51.9164 61.4439 47.8513C63.7927 43.7861 67.0037 40.2367 70.8706 37.4313C74.7375 34.6259 79.1746 32.6265 83.8967 31.5619ZM122.195 53.0054C122.195 56.4088 119.314 59.1678 115.76 59.1678C112.207 59.1678 109.326 56.4088 109.326 53.0054C109.326 49.6021 112.207 46.8431 115.76 46.8431C119.314 46.8431 122.195 49.6021 122.195 53.0054Z" fill="white"/>
</svg>
