<svg width="57" height="57" viewBox="0 0 57 57" fill="none" xmlns="http://www.w3.org/2000/svg">
<path fill-rule="evenodd" clip-rule="evenodd" d="M21.9902 0.758442C25.8649 -0.152888 29.8877 -0.244021 33.7998 0.49089L33.8007 0.493688C35.5477 0.835496 37.089 1.85235 38.0897 3.32324C39.0903 4.79413 39.4694 6.60016 39.1445 8.34874C38.8196 10.0973 37.8171 11.6471 36.3547 12.6613C34.8923 13.6754 33.0884 14.0719 31.335 13.7646L31.2235 13.7403C27.9103 13.1241 24.486 13.6393 21.5015 15.2031C18.5169 16.767 16.1458 19.2885 14.7697 22.3618C13.3936 25.4352 13.0924 28.8817 13.9147 32.1467C14.737 35.4118 16.635 38.3056 19.3031 40.3623C21.9713 42.4191 25.2545 43.5193 28.6245 43.4859C31.9944 43.4524 35.2551 42.2873 37.8819 40.178C40.5086 38.0687 42.3487 35.1379 43.1059 31.8572C43.8632 28.5764 43.4936 25.1366 42.0566 22.0911C41.6733 21.2894 41.4522 20.4199 41.4061 19.5326C41.3599 18.6453 41.4896 17.7576 41.7876 16.9205C42.0857 16.0834 42.5462 15.3133 43.1429 14.6544C43.7396 13.9955 44.4606 13.4608 45.2646 13.081C46.0686 12.7011 46.9397 12.4836 47.8281 12.4409C48.7164 12.3982 49.6045 12.5312 50.4413 12.8322C51.278 13.1332 52.0471 13.5963 52.7043 14.1949C53.3615 14.7935 53.894 15.5159 54.2711 16.3206C56.3115 20.6409 57.2327 25.4042 56.9501 30.173C56.6675 34.9417 55.19 39.5631 52.6535 43.6127C50.1169 47.6623 46.6026 51.0103 42.4332 53.3493C38.2638 55.6882 33.5729 56.9431 28.7915 56.9988C24.811 57.0355 20.8669 56.2397 17.2128 54.6624C13.5586 53.0851 10.2754 50.7612 7.57408 47.8403C4.87279 44.9193 2.81329 41.466 1.528 37.7022C0.242716 33.9384 -0.239909 29.9476 0.111176 25.9864C0.46226 22.0251 1.63928 18.1811 3.56653 14.7015C5.49379 11.2219 8.12864 8.18375 11.3016 5.78243C14.4746 3.38111 18.1155 1.66977 21.9902 0.758442ZM53.416 19.1132C53.416 22.0264 51.0522 24.3879 48.1362 24.3879C45.2202 24.3879 42.8564 22.0264 42.8564 19.1132C42.8564 16.2001 45.2202 13.8385 48.1362 13.8385C51.0522 13.8385 53.416 16.2001 53.416 19.1132Z" fill="black"/>
</svg>
