<svg width="26" height="26" viewBox="0 0 26 26" fill="none" xmlns="http://www.w3.org/2000/svg">
<path fill-rule="evenodd" clip-rule="evenodd" d="M9.69628 0.33475C11.4048 -0.0674793 13.1785 -0.107702 14.9035 0.216662L14.9039 0.217897C15.6742 0.368759 16.3539 0.817565 16.7951 1.46676C17.2363 2.11596 17.4035 2.91308 17.2602 3.68484C17.117 4.45661 16.6749 5.14063 16.0301 5.58824C15.3853 6.03585 14.5898 6.21086 13.8167 6.07522L13.7676 6.06449C12.3067 5.7925 10.7967 6.01992 9.48075 6.71014C8.16478 7.40036 7.11927 8.51325 6.51248 9.86972C5.9057 11.2262 5.77291 12.7474 6.13549 14.1884C6.49808 15.6295 7.33495 16.9067 8.51143 17.8145C9.68792 18.7223 11.1356 19.2079 12.6215 19.1931C14.1075 19.1784 15.5452 18.6642 16.7035 17.7332C17.8617 16.8022 18.673 15.5086 19.0069 14.0606C19.3408 12.6126 19.1779 11.0944 18.5443 9.75025C18.3752 9.39638 18.2778 9.01263 18.2574 8.62101C18.237 8.22938 18.2942 7.83759 18.4256 7.46811C18.5571 7.09863 18.7601 6.75874 19.0232 6.46794C19.2863 6.17713 19.6042 5.94113 19.9588 5.77348C20.3133 5.60583 20.6974 5.50984 21.0891 5.491C21.4808 5.47215 21.8724 5.53084 22.2413 5.66369C22.6103 5.79653 22.9494 6.00092 23.2392 6.26513C23.529 6.52934 23.7638 6.84817 23.93 7.20333C24.8297 9.11018 25.2359 11.2125 25.1113 13.3173C24.9867 15.4221 24.3352 17.4618 23.2168 19.2491C22.0983 21.0365 20.5487 22.5142 18.7103 23.5465C16.8718 24.5788 14.8035 25.1327 12.6952 25.1573C10.9401 25.1735 9.20096 24.8222 7.58973 24.1261C5.97849 23.4299 4.53077 22.4042 3.33968 21.115C2.14859 19.8258 1.24048 18.3016 0.67375 16.6404C0.107022 14.9792 -0.105784 13.2178 0.0490213 11.4695C0.203827 9.72111 0.722815 8.0245 1.57261 6.48873C2.42241 4.95296 3.58421 3.61202 4.98329 2.55216C6.38238 1.4923 7.98778 0.736979 9.69628 0.33475ZM23.553 8.43591C23.553 9.72167 22.5107 10.764 21.225 10.764C19.9392 10.764 18.8969 9.72167 18.8969 8.43591C18.8969 7.15016 19.9392 6.10785 21.225 6.10785C22.5107 6.10785 23.553 7.15016 23.553 8.43591Z" fill="black"/>
</svg>
